<svg xmlns="http://www.w3.org/2000/svg" viewBox="0 0 100 70" fill="none">
  <!-- Circuit Brain Logo - Traced from reference image -->
  <g stroke="#06b6d4" stroke-width="2" stroke-linecap="round" stroke-linejoin="round">

    <!-- Left hemisphere outline -->
    <path d="M50 10 C45 8, 38 6, 32 8 C24 10, 18 16, 14 24 C10 32, 8 42, 12 50 C16 58, 24 62, 32 62 C40 62, 46 58, 50 52"/>

    <!-- Left hemisphere - upper lobe traces -->
    <path d="M46 14 C40 12, 34 12, 28 16 L24 14"/>
    <path d="M42 18 C36 16, 30 18, 24 22 L20 20"/>
    <path d="M38 14 L34 10"/>

    <!-- Left hemisphere - middle traces -->
    <path d="M46 26 C38 24, 28 26, 20 32 L16 30"/>
    <path d="M44 34 C36 32, 26 34, 18 40 L14 38"/>
    <path d="M24 28 L20 26"/>

    <!-- Left hemisphere - lower lobe traces -->
    <path d="M46 44 C38 46, 30 50, 26 56 L22 58"/>
    <path d="M42 50 C36 52, 30 56, 28 60 L24 64"/>
    <path d="M34 48 L30 52"/>

    <!-- Right hemisphere outline -->
    <path d="M50 10 C55 8, 62 6, 68 8 C76 10, 82 16, 86 24 C90 32, 92 42, 88 50 C84 58, 76 62, 68 62 C60 62, 54 58, 50 52"/>

    <!-- Right hemisphere - upper lobe traces -->
    <path d="M54 14 C60 12, 66 12, 72 16 L76 14"/>
    <path d="M58 18 C64 16, 70 18, 76 22 L80 20"/>
    <path d="M62 14 L66 10"/>

    <!-- Right hemisphere - middle traces -->
    <path d="M54 26 C62 24, 72 26, 80 32 L84 30"/>
    <path d="M56 34 C64 32, 74 34, 82 40 L86 38"/>
    <path d="M76 28 L80 26"/>

    <!-- Right hemisphere - lower lobe traces -->
    <path d="M54 44 C62 46, 70 50, 74 56 L78 58"/>
    <path d="M58 50 C64 52, 70 56, 72 60 L76 64"/>
    <path d="M66 48 L70 52"/>

    <!-- Center stem -->
    <path d="M50 10 L50 52"/>
    <path d="M50 18 L46 22"/>
    <path d="M50 18 L54 22"/>
    <path d="M50 30 L44 34"/>
    <path d="M50 30 L56 34"/>
    <path d="M50 42 L46 46"/>
    <path d="M50 42 L54 46"/>
  </g>

  <!-- Circuit nodes -->
  <g fill="#06b6d4">
    <!-- Top nodes -->
    <circle cx="50" cy="10" r="2.5"/>
    <circle cx="34" cy="10" r="2"/>
    <circle cx="66" cy="10" r="2"/>
    <circle cx="24" cy="14" r="2"/>
    <circle cx="76" cy="14" r="2"/>

    <!-- Left side nodes -->
    <circle cx="20" cy="20" r="2"/>
    <circle cx="16" cy="30" r="2"/>
    <circle cx="20" cy="26" r="2"/>
    <circle cx="14" cy="38" r="2"/>
    <circle cx="22" cy="58" r="2"/>
    <circle cx="24" cy="64" r="2"/>
    <circle cx="30" cy="52" r="2"/>

    <!-- Right side nodes -->
    <circle cx="80" cy="20" r="2"/>
    <circle cx="84" cy="30" r="2"/>
    <circle cx="80" cy="26" r="2"/>
    <circle cx="86" cy="38" r="2"/>
    <circle cx="78" cy="58" r="2"/>
    <circle cx="76" cy="64" r="2"/>
    <circle cx="70" cy="52" r="2"/>

    <!-- Center branch nodes -->
    <circle cx="46" cy="22" r="1.5"/>
    <circle cx="54" cy="22" r="1.5"/>
    <circle cx="44" cy="34" r="1.5"/>
    <circle cx="56" cy="34" r="1.5"/>
    <circle cx="46" cy="46" r="1.5"/>
    <circle cx="54" cy="46" r="1.5"/>

    <!-- Bottom -->
    <circle cx="50" cy="52" r="2.5"/>
  </g>
</svg>
